<?xml version="1.0" encoding="UTF-8"?>
<svg xmlns="http://www.w3.org/2000/svg" version="1.1" viewBox="0 0 5000 5000">
  <defs>
    <style>
      .cls-1 {
        fill: none;
        stroke: #c1c1be;
        stroke-linecap: round;
        stroke-linejoin: round;
        stroke-width: 416.7px;
      }
    </style>
  </defs>
  <!-- Generator: Adobe Illustrator 28.7.1, SVG Export Plug-In . SVG Version: 1.2.0 Build 142)  -->
  <g>
    <g id="Layer_1">
      <path class="cls-1" d="M4375,2083.3H625M3333.3,416.7v833.3M1666.7,416.7v833.3M1625,4583.3h1750c350,0,525,0,658.7-68.1,117.6-59.9,213.2-155.5,273.1-273.1,68.1-133.7,68.1-308.7,68.1-658.7v-1750c0-350,0-525.1-68.1-658.7-59.9-117.6-155.5-213.2-273.1-273.1-133.7-68.1-308.7-68.1-658.7-68.1h-1750c-350,0-525.1,0-658.7,68.1-117.6,59.9-213.2,155.5-273.1,273.1-68.1,133.7-68.1,308.7-68.1,658.7v1750c0,350,0,525,68.1,658.7,59.9,117.6,155.5,213.2,273.1,273.1,133.7,68.1,308.7,68.1,658.7,68.1Z"/>
    </g>
  </g>
</svg>