<svg xmlns="http://www.w3.org/2000/svg" xmlns:xlink="http://www.w3.org/1999/xlink" viewBox="0,0,256,256" width="480px" height="480px" fill-rule="nonzero"><g transform="translate(64,64) scale(0.5,0.5)"><g fill="#edf0fb" fill-rule="nonzero" stroke="none" stroke-width="1" stroke-linecap="butt" stroke-linejoin="miter" stroke-miterlimit="10" stroke-dasharray="" stroke-dashoffset="0" font-family="none" font-weight="none" font-size="none" text-anchor="none" style="mix-blend-mode: normal"><path d="M-102.4,384c-14.13849,0 -25.6,-11.46151 -25.6,-25.6v-460.8c0,-14.13849 11.46151,-25.6 25.6,-25.6h460.8c14.13849,0 25.6,11.46151 25.6,25.6v460.8c0,14.13849 -11.46151,25.6 -25.6,25.6z" id="shape"></path></g><g fill="#5c7cfa" fill-rule="nonzero" stroke="none" stroke-width="1" stroke-linecap="butt" stroke-linejoin="miter" stroke-miterlimit="10" stroke-dasharray="" stroke-dashoffset="0" font-family="none" font-weight="none" font-size="none" text-anchor="none" style="mix-blend-mode: normal"><g transform="scale(5.33333,5.33333)"><path d="M9,7c-2.74952,0 -5,2.25048 -5,5v25c0,2.74997 2.25003,5 5,5h30c2.74997,0 5,-2.25003 5,-5v-21c-0.00006,-0.55226 -0.44774,-0.99994 -1,-1h-34c-0.36064,-0.0051 -0.69608,0.18438 -0.87789,0.49587c-0.18181,0.3115 -0.18181,0.69676 0,1.00825c0.18181,0.3115 0.51725,0.50097 0.87789,0.49587h33v20c0,1.67003 -1.32997,3 -3,3h-30c-1.67003,0 -3,-1.32997 -3,-3v-25c0,-1.66848 1.33152,-3 3,-3h30c1.66848,0 3,1.33152 3,3c-0.0051,0.36064 0.18438,0.69608 0.49587,0.87789c0.3115,0.18181 0.69676,0.18181 1.00825,0c0.3115,-0.18181 0.50097,-0.51725 0.49587,-0.87789c0,-2.74952 -2.25048,-5 -5,-5zM12,21c-1.09306,0 -2,0.90694 -2,2v11c0,1.09306 0.90694,2 2,2h8c1.09306,0 2,-0.90694 2,-2v-11c0,-1.09306 -0.90694,-2 -2,-2zM27,22c-0.36064,-0.0051 -0.69608,0.18438 -0.87789,0.49587c-0.18181,0.3115 -0.18181,0.69676 0,1.00825c0.18181,0.3115 0.51725,0.50097 0.87789,0.49587h10c0.36064,0.0051 0.69608,-0.18438 0.87789,-0.49587c0.18181,-0.3115 0.18181,-0.69676 0,-1.00825c-0.18181,-0.3115 -0.51725,-0.50097 -0.87789,-0.49587zM12,23h8v11h-8zM27,27c-0.36064,-0.0051 -0.69608,0.18438 -0.87789,0.49587c-0.18181,0.3115 -0.18181,0.69676 0,1.00825c0.18181,0.3115 0.51725,0.50097 0.87789,0.49587h5c0.36064,0.0051 0.69608,-0.18438 0.87789,-0.49587c0.18181,-0.3115 0.18181,-0.69676 0,-1.00825c-0.18181,-0.3115 -0.51725,-0.50097 -0.87789,-0.49587zM27,32c-0.36064,-0.0051 -0.69608,0.18438 -0.87789,0.49587c-0.18181,0.3115 -0.18181,0.69676 0,1.00825c0.18181,0.3115 0.51725,0.50097 0.87789,0.49587h8c0.36064,0.0051 0.69608,-0.18438 0.87789,-0.49587c0.18181,-0.3115 0.18181,-0.69676 0,-1.00825c-0.18181,-0.3115 -0.51725,-0.50097 -0.87789,-0.49587z"></path></g></g></g></svg>