<svg xmlns="http://www.w3.org/2000/svg" xmlns:xlink="http://www.w3.org/1999/xlink" viewBox="0,0,256,256" width="480px" height="480px" fill-rule="nonzero"><g transform="translate(64,64) scale(0.5,0.5)"><g fill="#fbf4ed" fill-rule="nonzero" stroke="none" stroke-width="1" stroke-linecap="butt" stroke-linejoin="miter" stroke-miterlimit="10" stroke-dasharray="" stroke-dashoffset="0" font-family="none" font-weight="none" font-size="none" text-anchor="none" style="mix-blend-mode: normal"><path d="M-102.4,384c-14.13849,0 -25.6,-11.46151 -25.6,-25.6v-460.8c0,-14.13849 11.46151,-25.6 25.6,-25.6h460.8c14.13849,0 25.6,11.46151 25.6,25.6v460.8c0,14.13849 -11.46151,25.6 -25.6,25.6z" id="shape"></path></g><g fill="#fe8f0d" fill-rule="nonzero" stroke="none" stroke-width="1" stroke-linecap="butt" stroke-linejoin="miter" stroke-miterlimit="10" stroke-dasharray="" stroke-dashoffset="0" font-family="none" font-weight="none" font-size="none" text-anchor="none" style="mix-blend-mode: normal"><g transform="scale(5.33333,5.33333)"><path d="M24,0c-6.06341,0 -11,4.93659 -11,11v5h-1c-2.74952,0 -5,2.25048 -5,5v19c0,2.74952 2.25048,5 5,5h24c2.74952,0 5,-2.25048 5,-5v-19c0,-1.82722 -0.98829,-3.43934 -2.46289,-4.30859c-0.30817,-0.19052 -0.69528,-0.19946 -1.01192,-0.02339c-0.31664,0.17607 -0.5133,0.50963 -0.51407,0.87194c-0.00077,0.3623 0.19447,0.69669 0.51037,0.87411c0.8834,0.52075 1.47852,1.47716 1.47852,2.58594v19c0,1.66848 -1.33152,3 -3,3h-24c-1.66848,0 -3,-1.33152 -3,-3v-19c0,-1.66848 1.33152,-3 3,-3h1.83203c0.32452,0.05512 0.65539,-0.05298 0.88477,-0.28906c0.00131,-0.0013 0.00261,-0.0026 0.00391,-0.00391c0.00262,-0.00259 0.00522,-0.00519 0.00781,-0.00781c0.00262,-0.00259 0.00522,-0.00519 0.00781,-0.00781c0.21594,-0.22637 0.31351,-0.54075 0.26367,-0.84961v-5.8418c0,-4.98259 4.01741,-9 9,-9c4.98259,0 9,4.01741 9,9v5h-15c-0.36064,-0.0051 -0.69608,0.18438 -0.87789,0.49587c-0.18181,0.3115 -0.18181,0.69676 0,1.00825c0.18181,0.3115 0.51725,0.50097 0.87789,0.49587h15.83203c0.32452,0.05512 0.65539,-0.05298 0.88477,-0.28906c0.00131,-0.0013 0.00261,-0.0026 0.00391,-0.00391c0.00262,-0.00259 0.00522,-0.00519 0.00781,-0.00781c0.00262,-0.00259 0.00522,-0.00519 0.00781,-0.00781c0.21594,-0.22637 0.31351,-0.54075 0.26367,-0.84961v-5.8418c0,-6.06341 -4.93659,-11 -11,-11zM24,24c-2.74952,0 -5,2.25048 -5,5c0,1.58772 0.843,2.90283 2,3.81445v2.18555c0,1.64497 1.35503,3 3,3c1.64497,0 3,-1.35503 3,-3v-2.18555c1.157,-0.91162 2,-2.22673 2,-3.81445c0,-2.74952 -2.25048,-5 -5,-5zM24,26c1.66848,0 3,1.33152 3,3c0,1.11184 -0.60165,2.05622 -1.50195,2.58008c-0.30839,0.179 -0.49815,0.50866 -0.49805,0.86523v2.55469c0,0.56503 -0.43497,1 -1,1c-0.56503,0 -1,-0.43497 -1,-1v-2.55469c0.0001,-0.35658 -0.18966,-0.68623 -0.49805,-0.86523c-0.9003,-0.52385 -1.50195,-1.46823 -1.50195,-2.58008c0,-1.66848 1.33152,-3 3,-3z"></path></g></g></g></svg>