<svg xmlns="http://www.w3.org/2000/svg" xmlns:xlink="http://www.w3.org/1999/xlink" viewBox="0,0,256,256" width="480px" height="480px" fill-rule="nonzero"><g transform="translate(64,64) scale(0.5,0.5)"><g fill="#fbeded" fill-rule="nonzero" stroke="none" stroke-width="1" stroke-linecap="butt" stroke-linejoin="miter" stroke-miterlimit="10" stroke-dasharray="" stroke-dashoffset="0" font-family="none" font-weight="none" font-size="none" text-anchor="none" style="mix-blend-mode: normal"><path d="M-102.4,384c-14.13849,0 -25.6,-11.46151 -25.6,-25.6v-460.8c0,-14.13849 11.46151,-25.6 25.6,-25.6h460.8c14.13849,0 25.6,11.46151 25.6,25.6v460.8c0,14.13849 -11.46151,25.6 -25.6,25.6z" id="shape"></path></g><g fill="#fa5252" fill-rule="nonzero" stroke="none" stroke-width="1" stroke-linecap="butt" stroke-linejoin="miter" stroke-miterlimit="10" stroke-dasharray="" stroke-dashoffset="0" font-family="none" font-weight="none" font-size="none" text-anchor="none" style="mix-blend-mode: normal"><g transform="scale(5.33333,5.33333)"><path d="M24,4.22852c-1.12467,0 -2.24854,0.53339 -2.90039,1.59961l-19.56445,31.99805c-1.35774,2.22214 0.298,5.17383 2.90234,5.17383h39.125c2.60496,0 4.25993,-2.95195 2.90234,-5.17383l-19.56445,-31.99805c-0.65185,-1.06622 -1.77572,-1.59961 -2.90039,-1.59961zM24,6.17383c0.45533,0 0.91117,0.23249 1.19531,0.69727l19.5625,31.99805c0.59642,0.97612 -0.05027,2.13086 -1.19531,2.13086h-39.125c-1.14365,0 -1.79157,-1.155 -1.19531,-2.13086l19.5625,-31.99805c0.28415,-0.46478 0.73998,-0.69727 1.19531,-0.69727zM23.99219,14.99414c-0.61,0 -1.06055,0.42212 -1.06055,1.07812l0.10742,13.7832c0.016,0.624 0.35912,0.99805 0.95313,0.99805c0.593,0 0.95275,-0.37405 0.96875,-0.99805l0.09375,-13.7832c0,-0.656 -0.4545,-1.07812 -1.0625,-1.07812zM23.99219,35.00781c-0.811,0 -1.45313,0.6398 -1.45313,1.4668c0,0.812 0.64213,1.45117 1.45313,1.45117c0.827,0 1.4668,-0.63917 1.4668,-1.45117c0,-0.827 -0.6398,-1.4668 -1.4668,-1.4668z"></path></g></g></g></svg>